<svg xmlns="http://www.w3.org/2000/svg" viewBox="0 0 166.02 310.67">
	<defs>
		<style>
			.cls-1{isolation:isolate;}.cls-2{fill:#a8d8ea;}.cls-3{fill:#8acdeb;}.cls-4{fill:#4392cb;}.cls-5{fill:#589ad3;}.cls-6{mix-blend-mode:screen;}.cls-7{mix-blend-mode:multiply;}.cls-8{fill:#2c7abf;}.cls-9{fill:#1976b8;}
		</style>
	</defs>
	<g class="cls-1">
		<g id="Layer_1" data-name="Layer 1">
			<path class="cls-2" d="M102.87,167.52v-1.37a15.59,15.59,0,0,0-7.94-13.59,110.31,110.31,0,0,0,6.82-39.15c0-31.46-11.83-67.3-28-78.8V18.67H52.41V34.61c-16.13,11.5-28,47.34-28,78.8a109.63,109.63,0,0,0,6.85,39.15,15.56,15.56,0,0,0-8,13.59v1.37a15.48,15.48,0,0,0,1.89,7.39v3.15a10.78,10.78,0,0,0-.78,3.95,10.52,10.52,0,0,0,.78,4v9.37a10.83,10.83,0,0,0,0,8.07v9.37a10.49,10.49,0,0,0-.78,4,10.69,10.69,0,0,0,.78,4v9.35a10.85,10.85,0,0,0,0,8.08v9.35a10.83,10.83,0,0,0,0,8.07v9.35a10.75,10.75,0,0,0-.78,4,10.41,10.41,0,0,0,.78,4v2a15.4,15.4,0,0,0-1.89,7.36v1.38a15.59,15.59,0,0,0,15.6,15.6H87.28a15.59,15.59,0,0,0,15.59-15.6v-1.38a15.5,15.5,0,0,0-2.28-8.1,13.48,13.48,0,0,0,1.19-5.21,11,11,0,0,0-1.19-4.93v-7.55a10.85,10.85,0,0,0,0-9.88v-7.54a11.12,11.12,0,0,0,1.19-4.95,11,11,0,0,0-1.19-4.93v-7.55a10.87,10.87,0,0,0,0-9.89v-7.55a10.83,10.83,0,0,0,0-9.87V187a11.09,11.09,0,0,0,1.19-5,10.7,10.7,0,0,0-1.19-4.85V175.6A15.71,15.71,0,0,0,102.87,167.52Z" />
			<path class="cls-3" d="M102.87,167.52v-1.37a15.59,15.59,0,0,0-7.94-13.59,110.31,110.31,0,0,0,6.82-39.15c0-31.46-11.83-67.3-28-78.8V18.67H62.91V299.44H87.28a15.59,15.59,0,0,0,15.59-15.6v-1.38a15.5,15.5,0,0,0-2.28-8.1,13.48,13.48,0,0,0,1.19-5.21,11,11,0,0,0-1.19-4.93v-7.55a10.85,10.85,0,0,0,0-9.88v-7.54a11.12,11.12,0,0,0,1.19-4.95,11,11,0,0,0-1.19-4.93v-7.55a10.87,10.87,0,0,0,0-9.89v-7.55a10.83,10.83,0,0,0,0-9.87V187a11.09,11.09,0,0,0,1.19-5,10.7,10.7,0,0,0-1.19-4.85V175.6A15.71,15.71,0,0,0,102.87,167.52Z" />
			<path class="cls-4" d="M94.74,152.56a110.53,110.53,0,0,0,6.81-39.15c0-4.57-.26-9.23-.73-13.9a80.48,80.48,0,0,1-15.29-5.73C73.86,88,40.64,95.47,25,99.51a136.3,136.3,0,0,0-.73,13.9,109.85,109.85,0,0,0,6.84,39.15,15.58,15.58,0,0,0-8,13.59v1.37a15.49,15.49,0,0,0,1.9,7.39v3.15a10.78,10.78,0,0,0-.79,3.95,10.53,10.53,0,0,0,.79,4v9.37a10.7,10.7,0,0,0,0,8.07v9.37a10.49,10.49,0,0,0-.79,4,10.69,10.69,0,0,0,.79,4v9.35a10.73,10.73,0,0,0,0,8.08v9.35a10.7,10.7,0,0,0,0,8.07v9.35a10.76,10.76,0,0,0-.79,4,10.41,10.41,0,0,0,.79,4v2a15.4,15.4,0,0,0-1.9,7.36v1.38a15.6,15.6,0,0,0,15.61,15.6H87.09a15.6,15.6,0,0,0,15.59-15.6v-1.38a15.42,15.42,0,0,0-2.29-8.1,13.48,13.48,0,0,0,1.19-5.21,11,11,0,0,0-1.19-4.93v-7.55a10.85,10.85,0,0,0,0-9.88v-7.54a11.12,11.12,0,0,0,1.19-4.95,11,11,0,0,0-1.19-4.93v-7.55a10.87,10.87,0,0,0,0-9.89v-7.55a10.83,10.83,0,0,0,0-9.87V187a11.09,11.09,0,0,0,1.19-5,10.7,10.7,0,0,0-1.19-4.85V175.6a15.62,15.62,0,0,0,2.29-8.08v-1.37A15.61,15.61,0,0,0,94.74,152.56Z" />
			<path class="cls-5" d="M24.44,251.74a10.6,10.6,0,0,0,.78,4v9.35a11.26,11.26,0,0,0-.74,3.49h77.27a11.24,11.24,0,0,0-1.16-4.39v-7.55a10.85,10.85,0,0,0,0-9.88v-7.54a11.12,11.12,0,0,0,1.19-4.95,11,11,0,0,0-1.19-4.93v-7.55a10.87,10.87,0,0,0,0-9.89v-7.55a10.83,10.83,0,0,0,0-9.87V187a11,11,0,0,0,1.16-4.45H24.48a10.79,10.79,0,0,0,.74,3.53v9.37a10.83,10.83,0,0,0,0,8.07v9.37a10.49,10.49,0,0,0-.78,4,10.69,10.69,0,0,0,.78,4v9.35a10.85,10.85,0,0,0,0,8.08v9.35A10.69,10.69,0,0,0,24.44,251.74Z" />
			<path class="cls-4" d="M101.75,268.61a11.24,11.24,0,0,0-1.16-4.39v-7.55a10.85,10.85,0,0,0,0-9.88v-7.54a11.12,11.12,0,0,0,1.19-4.95,11,11,0,0,0-1.19-4.93v-7.55a10.87,10.87,0,0,0,0-9.89v-7.55a10.83,10.83,0,0,0,0-9.87V187a11,11,0,0,0,1.16-4.45H62.91v86.1Z" />
			<g class="cls-6">
				<path class="cls-2" d="M27.22,285.13a1.29,1.29,0,0,1-1.29-1.29v-1.38a12.71,12.71,0,0,1,1.61-6.11,18.88,18.88,0,0,0,.29-3.73,9,9,0,0,1-.78-3.47,8.2,8.2,0,0,1,.6-3c.18-.47.18-10.85.18-10.85a9,9,0,0,1-.78-3.51,8.06,8.06,0,0,1,.6-3.06c.18-.48.18-10.84.18-10.84a9.22,9.22,0,0,1-.78-3.54,8.08,8.08,0,0,1,.6-3.05c.18-.47.18-10.85.18-10.85a9.13,9.13,0,0,1-.78-3.52,8,8,0,0,1,.6-3c.18-.47.18-10.85.18-10.85a9.21,9.21,0,0,1-.78-3.53,8.21,8.21,0,0,1,.6-3.06c.18-.46.18-10.84.18-10.84a9.18,9.18,0,0,1-.78-3.54,8.09,8.09,0,0,1,.6-3,46.51,46.51,0,0,0,.18-4.77,13.8,13.8,0,0,1-1.9-6.73v-1.37a13,13,0,0,1,6.65-11.33l2-1.11-.8-2.1a106.67,106.67,0,0,1-6.67-38.2c0-31.72,12-66.11,26.85-76.68L55,36V22.59a1.29,1.29,0,1,1,2.57,0v14a1.31,1.31,0,0,1-.53,1l-1.64,1.17C41.23,49,29.66,82.43,29.66,113.41a104.62,104.62,0,0,0,6.46,37.27l1.22,3.15a1.28,1.28,0,0,1-.56,1.59l-2.94,1.65a10.48,10.48,0,0,0-5.34,9.08v1.37a10.42,10.42,0,0,0,1.29,4.93l.46.87c.16.61.16,5.48.16,5.48a9.79,9.79,0,0,0-.78,3.21,5.62,5.62,0,0,0,.41,2.11c.37,1.17.37,12,.37,12a9.69,9.69,0,0,0-.78,3.28,5.57,5.57,0,0,0,.41,2.1c.37,1.17.37,12,.37,12a9.65,9.65,0,0,0-.78,3.28A5.41,5.41,0,0,0,30,219c.37,1.19.37,12.07.37,12.07a9.52,9.52,0,0,0-.78,3.26,5.44,5.44,0,0,0,.41,2.09c.37,1.19.37,12.07.37,12.07a9.6,9.6,0,0,0-.78,3.28,5.47,5.47,0,0,0,.41,2.08c.37,1.18.37,12.06.37,12.06a9.76,9.76,0,0,0-.78,3.27,5.34,5.34,0,0,0,.41,2,27.92,27.92,0,0,1,.37,4.91,8.67,8.67,0,0,1-.62,1.47,10.3,10.3,0,0,0-1.29,4.89v1.38A1.28,1.28,0,0,1,27.22,285.13Z" />
			</g>
			<g class="cls-7">
				<path class="cls-3" d="M87.28,296.81H38.93a1.27,1.27,0,1,1,0-2.54H87.28A10.43,10.43,0,0,0,97.7,283.84v-1.38a10.21,10.21,0,0,0-1.55-5.4l-.58-.95a23.77,23.77,0,0,1-.16-3,7.59,7.59,0,0,1,.55-1.4,5.72,5.72,0,0,0,.64-2.54A5.39,5.39,0,0,0,96,266.6l-.42-.85c-.13-.58-.13-10-.13-10a7.81,7.81,0,0,1,.55-1.41,5.5,5.5,0,0,0,0-5.15l-.42-.85c-.13-.58-.13-10-.13-10a7.93,7.93,0,0,1,.55-1.43,5.5,5.5,0,0,0,.64-2.57,5.36,5.36,0,0,0-.64-2.55l-.42-.86c-.13-.57-.13-10-.13-10a8,8,0,0,1,.55-1.42,5.56,5.56,0,0,0,.64-2.57,5.64,5.64,0,0,0-.64-2.59l-.42-.83c-.13-.58-.13-10-.13-10A7.61,7.61,0,0,1,96,202a5.5,5.5,0,0,0,.64-2.57,5.57,5.57,0,0,0-.64-2.58l-.42-.85c-.13-.58-.13-10-.13-10A7.81,7.81,0,0,1,96,184.6,5.55,5.55,0,0,0,96.6,182a5.7,5.7,0,0,0-.64-2.52l-.42-.82c-.13-.58-.13-4.16-.13-4.16a7.09,7.09,0,0,1,.74-1.59,10.31,10.31,0,0,0,1.55-5.4v-1.37a10.42,10.42,0,0,0-5.34-9.09l-2.92-1.66a1.28,1.28,0,0,1-.58-1.57l1.22-3.15a104.36,104.36,0,0,0,6.49-37.27C96.57,82.43,85,49,70.8,38.82l-1.64-1.16a1.22,1.22,0,0,1-.55-1v-14a1.29,1.29,0,1,1,2.57,0V36l1.09.79c14.82,10.55,26.84,45,26.84,76.66,0,13.74-2.28,27-6.65,38.18l-.81,2.12,2,1.11a13,13,0,0,1,6.66,11.33v1.37a12.65,12.65,0,0,1-1.93,6.71c-.39.63-.39,3.56-.39,3.56A8.81,8.81,0,0,1,99.14,182a7.91,7.91,0,0,1-.9,3.74c-.29.57-.29,9.39-.29,9.39a8.83,8.83,0,0,1,1.19,4.31,7.86,7.86,0,0,1-.9,3.72c-.29.58-.29,9.4-.29,9.4a8.81,8.81,0,0,1,1.19,4.31,7.9,7.9,0,0,1-.9,3.73C98,221.17,98,230,98,230a8.79,8.79,0,0,1,1.19,4.29,8,8,0,0,1-.9,3.74c-.29.57-.29,9.39-.29,9.39a8.83,8.83,0,0,1,1.19,4.31,7.86,7.86,0,0,1-.9,3.72c-.29.58-.29,9.4-.29,9.4a8.77,8.77,0,0,1,1.19,4.29,8.15,8.15,0,0,1-.9,3.68A7.83,7.83,0,0,0,98,275.1a13.72,13.72,0,0,1,2.32,7.36v1.38A13,13,0,0,1,87.28,296.81Z" />
			</g>
			<rect class="cls-8" x="125.92" y="275.54" width="28.22" height="19.17" rx="2.57" />
			<path class="cls-9" d="M128.51,294.71h11.33V275.54H128.51a2.58,2.58,0,0,0-2.59,2.57v14A2.58,2.58,0,0,0,128.51,294.71Z" />
			<g class="cls-7">
				<path class="cls-3" d="M91.69,170.18a5.12,5.12,0,0,0,.8-2.66v-1.37a5.26,5.26,0,0,0-2.67-4.55L82,157.18l3.28-8.38a99.9,99.9,0,0,0,6.1-35.39c0-29-10.8-66.62-23.59-75.75H66c8,9.13,14.78,46.75,14.78,75.75a153.4,153.4,0,0,1-3.86,35.39l-2,8.38,4.92,4.42a6.22,6.22,0,0,1,1.67,4.55v1.37a6.71,6.71,0,0,1-.52,2.66l-.93,2.49v7l.71,2.22L80,184.08l0,2.88V197l.71,2.23-.71,2.23v13l.71,2.23-.71,2.25v12.95l.71,2.23-.71,2.25v12.94l.71,2.25-.71,2.23v13l.71,2.24-.68,2.21,0,3.17v2.92l1,2.5a7.57,7.57,0,0,1,.48,2.68v1.38c0,2.86-1.48,5.19-3.28,5.19h9.06a5.22,5.22,0,0,0,5.21-5.19v-1.38a4.93,4.93,0,0,0-.8-2.68l-1.51-2.5v-2.92l0-3.17L91.33,269l-1.15-2.24v-13l1.15-2.23-1.15-2.25V236.37l1.15-2.25-1.15-2.23V218.94l1.15-2.25-1.15-2.23v-13l1.15-2.23L90.18,197V187l0-2.88,1.16-2.23-1.12-2.22v-7Z" />
			</g>
			<g class="cls-6">
				<path class="cls-2" d="M57.56,161.6H46.39l4.9-4.42-2-8.38a154.05,154.05,0,0,1-3.82-35.39c0-29,6.75-66.62,14.75-75.75H58.45c-12.79,9.13-23.59,46.75-23.59,75.75A99.23,99.23,0,0,0,41,148.8l3.25,8.38-7.86,4.42a5.26,5.26,0,0,0-2.65,4.55v1.37a4.84,4.84,0,0,0,.64,2.44l1.26,2.31,0,8-.76,1.87.78,1.88v13.69l-.78,1.86.78,1.88v13.68L34.86,217l.78,1.88v13.68l-.78,1.86.78,1.88V250l-.78,1.88.78,1.88v13.63l-.78,1.86.78,1.88v6.63l-1.26,2.31a5.09,5.09,0,0,0-.64,2.41v1.38A5.19,5.19,0,0,0,38.93,289h9c-1.8,0-3.26-2.33-3.26-5.19v-1.38a7.85,7.85,0,0,1,.4-2.41l.78-2.31v-6.63l-.46-1.88.46-1.86V253.74l-.46-1.88L45.9,250V236.31l-.46-1.88.46-1.86V218.89L45.44,217l.48-1.86,0-13.68-.46-1.88.46-1.86V184l-.46-1.88.46-1.87v-8H57.56a5.36,5.36,0,0,0,0-10.71Z" />
			</g>
		</g>
	</g>
</svg>
