<svg id="Layer_1" data-name="Layer 1" xmlns="http://www.w3.org/2000/svg" viewBox="0 0 282.67 272"><defs><style>.cls-1{fill:none;}.cls-2{fill:#616e7d;}.cls-3{fill:#aad3c7;}</style></defs><rect class="cls-1" x="90.54" y="41.29" width="71.15" height="6.39" transform="translate(-0.34 0.99) rotate(-0.45)"/><path class="cls-2" d="M46.22,70.21a8,8,0,0,0-7.79,9.5L71.75,253.63a8,8,0,0,0,7.91,6.49l134.67-1.05a8,8,0,0,0,7.8-6.56L253.91,78.08A8,8,0,0,0,246,68.65Zm57.42,178.11a7.93,7.93,0,0,1-9.08-6.58L71.68,98.38a7.93,7.93,0,1,1,15.66-2.5l22.88,143.35A7.94,7.94,0,0,1,103.64,248.32Zm43.86.56a7.92,7.92,0,0,1-8-7.87L138.37,95.85a7.94,7.94,0,1,1,15.87-.13l1.14,145.17A7.94,7.94,0,0,1,147.5,248.88ZM221,97.21l-20.63,143.7a7.94,7.94,0,0,1-15.71-2.26L205.26,95A7.93,7.93,0,0,1,221,97.21Z"/><path class="cls-2" d="M174.55,33.31l15-.26-.22-12.83a7.55,7.55,0,0,0-7.66-7.4l-74.21,1.29a7.51,7.51,0,0,0-7.39,7.65l.23,12.84,15-.26L115.3,29l59.16-1Z"/><path class="cls-3" d="M28.76,76.14,264,72.07l-.42-24-21.81.38-.22-12.6a3.74,3.74,0,0,0-3.8-3.67l-48.13.83-15,.26-59.16,1-15,.26-44.87.77a3.74,3.74,0,0,0-3.67,3.8L52,51.77l-23.67.41Z"/><path class="cls-3" d="M146.24,87.85a7.94,7.94,0,0,0-7.87,8L139.51,241a7.94,7.94,0,0,0,15.87-.12L154.24,95.72A7.93,7.93,0,0,0,146.24,87.85Z"/><path class="cls-3" d="M205.65,94.64,184.69,238a7.92,7.92,0,0,0,6.83,8.95,8,8,0,0,0,9.13-6.7l21-143.33a7.93,7.93,0,0,0-6.83-9A8,8,0,0,0,205.65,94.64Z"/><path class="cls-3" d="M78.26,89.3a7.9,7.9,0,0,0-6.58,9.08L94.56,241.74a7.93,7.93,0,1,0,15.66-2.51L87.34,95.88A7.91,7.91,0,0,0,78.26,89.3Z"/><rect class="cls-1" x="90.54" y="41.29" width="71.15" height="6.39" transform="translate(-0.34 0.99) rotate(-0.45)"/><path class="cls-2" d="M46.22,70.21a8,8,0,0,0-7.79,9.5L71.75,253.63a8,8,0,0,0,7.91,6.49l134.67-1.05a8,8,0,0,0,7.8-6.56L253.91,78.08A8,8,0,0,0,246,68.65Zm57.42,178.11a7.93,7.93,0,0,1-9.08-6.58L71.68,98.38a7.93,7.93,0,1,1,15.66-2.5l22.88,143.35A7.94,7.94,0,0,1,103.64,248.32Zm43.86.56a7.92,7.92,0,0,1-8-7.87L138.37,95.85a7.94,7.94,0,1,1,15.87-.13l1.14,145.17A7.94,7.94,0,0,1,147.5,248.88ZM221,97.21l-20.63,143.7a7.94,7.94,0,0,1-15.71-2.26L205.26,95A7.93,7.93,0,0,1,221,97.21Z"/><path class="cls-2" d="M174.55,33.31l15-.26-.22-12.83a7.55,7.55,0,0,0-7.66-7.4l-74.21,1.29a7.51,7.51,0,0,0-7.39,7.65l.23,12.84,15-.26L115.3,29l59.16-1Z"/><path class="cls-3" d="M28.76,76.14,264,72.07l-.42-24-21.81.38-.22-12.6a3.74,3.74,0,0,0-3.8-3.67l-48.13.83-15,.26-59.16,1-15,.26-44.87.77a3.74,3.74,0,0,0-3.67,3.8L52,51.77l-23.67.41Z"/><path class="cls-3" d="M146.24,87.85a7.94,7.94,0,0,0-7.87,8L139.51,241a7.94,7.94,0,0,0,15.87-.12L154.24,95.72A7.93,7.93,0,0,0,146.24,87.85Z"/><path class="cls-3" d="M205.65,94.64,184.69,238a7.92,7.92,0,0,0,6.83,8.95,8,8,0,0,0,9.13-6.7l21-143.33a7.93,7.93,0,0,0-6.83-9A8,8,0,0,0,205.65,94.64Z"/><path class="cls-3" d="M78.26,89.3a7.9,7.9,0,0,0-6.58,9.08L94.56,241.74a7.93,7.93,0,1,0,15.66-2.51L87.34,95.88A7.91,7.91,0,0,0,78.26,89.3Z"/></svg>