<svg id="Layer_1" data-name="Layer 1" xmlns="http://www.w3.org/2000/svg" viewBox="0 0 354.67 280"><defs><style>.cls-1{fill:#616e7d;}.cls-2{fill:#aad3c7;}</style></defs><path class="cls-1" d="M123.05,66.75a8,8,0,0,0-7.79,9.49l33.33,173.93a8,8,0,0,0,7.91,6.49l134.66-1.06A8,8,0,0,0,299,249L330.75,74.61a8,8,0,0,0-7.93-9.42Zm57.42,178.1a7.93,7.93,0,0,1-9.08-6.58L148.51,94.91a7.93,7.93,0,0,1,15.67-2.5l22.88,143.36A7.93,7.93,0,0,1,180.47,244.85Zm43.87.57a7.93,7.93,0,0,1-8-7.87L215.2,92.38a7.94,7.94,0,0,1,15.87-.12l1.14,145.16A7.93,7.93,0,0,1,224.34,245.42ZM297.8,93.75,277.17,237.44a7.94,7.94,0,0,1-15.71-2.25l20.63-143.7a7.94,7.94,0,0,1,15.71,2.26Z"/><path class="cls-1" d="M68.92,105.38l2.61-14.83L58.89,88.32a7.54,7.54,0,0,0-8.72,6.11L37.28,167.52a7.62,7.62,0,0,0,1.24,5.62,7.54,7.54,0,0,0,4.86,3.09L56,178.46l2.62-14.82-5.23-.92,10.28-58.26Z"/><path class="cls-2" d="M83.15,256.66,124,25l-23.59-4.16-3.8,21.49L84.22,40.12a3.7,3.7,0,0,0-2.78.62,3.75,3.75,0,0,0-1.54,2.41l-8.37,47.4-2.61,14.83L58.64,163.64,56,178.46l-7.79,44.2a3.74,3.74,0,0,0,3,4.32l12.41,2.19L59.55,252.5Z"/><path class="cls-2" d="M223.07,84.39a7.94,7.94,0,0,0-7.87,8l1.14,145.17a7.94,7.94,0,0,0,15.87-.13L231.07,92.26A7.92,7.92,0,0,0,223.07,84.39Z"/><path class="cls-2" d="M282.49,91.17l-21,143.33a7.93,7.93,0,0,0,6.83,9,8.05,8.05,0,0,0,9.13-6.71l21-143.33a7.93,7.93,0,0,0-6.83-9A8,8,0,0,0,282.49,91.17Z"/><path class="cls-2" d="M155.1,85.83a7.92,7.92,0,0,0-6.59,9.08l22.88,143.36a7.93,7.93,0,0,0,15.67-2.5L164.18,92.41A7.93,7.93,0,0,0,155.1,85.83Z"/><path class="cls-1" d="M123.05,66.75a8,8,0,0,0-7.79,9.49l33.33,173.93a8,8,0,0,0,7.91,6.49l134.66-1.06A8,8,0,0,0,299,249L330.75,74.61a8,8,0,0,0-7.93-9.42Zm57.42,178.1a7.93,7.93,0,0,1-9.08-6.58L148.51,94.91a7.93,7.93,0,0,1,15.67-2.5l22.88,143.36A7.93,7.93,0,0,1,180.47,244.85Zm43.87.57a7.93,7.93,0,0,1-8-7.87L215.2,92.38a7.94,7.94,0,0,1,15.87-.12l1.14,145.16A7.93,7.93,0,0,1,224.34,245.42ZM297.8,93.75,277.17,237.44a7.94,7.94,0,0,1-15.71-2.25l20.63-143.7a7.94,7.94,0,0,1,15.71,2.26Z"/><path class="cls-1" d="M68.92,105.38l2.61-14.83L58.89,88.32a7.54,7.54,0,0,0-8.72,6.11L37.28,167.52a7.62,7.62,0,0,0,1.24,5.62,7.54,7.54,0,0,0,4.86,3.09L56,178.46l2.62-14.82-5.23-.92,10.28-58.26Z"/><path class="cls-2" d="M83.15,256.66,124,25l-23.59-4.16-3.8,21.49L84.22,40.12a3.7,3.7,0,0,0-2.78.62,3.75,3.75,0,0,0-1.54,2.41l-8.37,47.4-2.61,14.83L58.64,163.64,56,178.46l-7.79,44.2a3.74,3.74,0,0,0,3,4.32l12.41,2.19L59.55,252.5Z"/><path class="cls-2" d="M155.1,85.83a7.92,7.92,0,0,0-6.59,9.08l22.88,143.36a7.93,7.93,0,0,0,15.67-2.5L164.18,92.41A7.93,7.93,0,0,0,155.1,85.83Z"/></svg>