<svg xmlns="http://www.w3.org/2000/svg" xmlns:xlink="http://www.w3.org/1999/xlink" viewBox="0 0 131.05 146.67"><defs><style>.cls-1{fill:#fdf8f4;}.cls-2{isolation:isolate;}.cls-3{fill:url(#Áåçûìÿííûé_ãðàäèåíò_8);}.cls-34,.cls-4,.cls-42,.cls-43,.cls-44{opacity:0.6;}.cls-10,.cls-34,.cls-4,.cls-42,.cls-43,.cls-44,.cls-8{mix-blend-mode:multiply;}.cls-4{fill:url(#linear-gradient);}.cls-5{fill:url(#Áåçûìÿííûé_ãðàäèåíò_8-2);}.cls-6{fill:#97c43e;}.cls-7{fill:#fff;}.cls-8{fill:#8b699a;}.cls-10,.cls-8{opacity:0.3;}.cls-9{fill:url(#radial-gradient);}.cls-10{fill:#686b9a;}.cls-11{fill:url(#Áåçûìÿííûé_ãðàäèåíò_8-3);}.cls-12{fill:url(#linear-gradient-2);}.cls-13{fill:url(#linear-gradient-3);}.cls-14{fill:url(#radial-gradient-2);}.cls-15{fill:url(#radial-gradient-3);}.cls-16{fill:url(#radial-gradient-4);}.cls-17{fill:url(#radial-gradient-5);}.cls-18{fill:url(#linear-gradient-4);}.cls-19{fill:url(#linear-gradient-5);}.cls-20{fill:url(#linear-gradient-6);}.cls-21{fill:url(#linear-gradient-7);}.cls-22{fill:url(#Áåçûìÿííûé_ãðàäèåíò_342);}.cls-23{clip-path:url(#clip-path);}.cls-24{fill:url(#linear-gradient-8);}.cls-25{fill:#381e22;}.cls-26{fill:#231f20;}.cls-27{fill:url(#Áåçûìÿííûé_ãðàäèåíò_342-2);}.cls-28{clip-path:url(#clip-path-2);}.cls-29{fill:url(#linear-gradient-9);}.cls-30{fill:url(#Áåçûìÿííûé_ãðàäèåíò_77);}.cls-31{fill:url(#Áåçûìÿííûé_ãðàäèåíò_77-2);}.cls-32{fill:#f68e70;}.cls-33{fill:#161a3d;}.cls-34{fill-rule:evenodd;fill:url(#linear-gradient-10);}.cls-35{fill:url(#Áåçûìÿííûé_ãðàäèåíò_341);}.cls-36{fill:#570c20;}.cls-37{fill:#fdebed;}.cls-38{fill:url(#Áåçûìÿííûé_ãðàäèåíò_407);}.cls-39{fill:url(#linear-gradient-11);}.cls-40{fill:url(#linear-gradient-12);}.cls-41{fill:url(#Áåçûìÿííûé_ãðàäèåíò_341-2);}.cls-42{fill:url(#linear-gradient-13);}.cls-43{fill:url(#linear-gradient-14);}.cls-44{fill:url(#linear-gradient-15);}</style><linearGradient id="Áåçûìÿííûé_ãðàäèåíò_8" x1="67.23" y1="80.17" x2="78.89" y2="80.17" gradientUnits="userSpaceOnUse"><stop offset="0.02" stop-color="#faad79"/><stop offset="1" stop-color="#f6947d"/></linearGradient><linearGradient id="linear-gradient" x1="70.65" y1="69.57" x2="77.41" y2="84.6" gradientUnits="userSpaceOnUse"><stop offset="0" stop-color="#feeadb"/><stop offset="0.99" stop-color="#8f68ad"/></linearGradient><linearGradient id="Áåçûìÿííûé_ãðàäèåíò_8-2" x1="17.15" y1="26.29" x2="30.49" y2="26.29" xlink:href="#Áåçûìÿííûé_ãðàäèåíò_8"/><radialGradient id="radial-gradient" cx="23.7" cy="37.46" r="10.93" gradientUnits="userSpaceOnUse"><stop offset="0" stop-color="#69883a"/><stop offset="1" stop-color="#6e8f3c"/></radialGradient><linearGradient id="Áåçûìÿííûé_ãðàäèåíò_8-3" x1="95.32" y1="100.37" x2="107.88" y2="100.37" xlink:href="#Áåçûìÿííûé_ãðàäèåíò_8"/><linearGradient id="linear-gradient-2" x1="87.24" y1="94.01" x2="106.52" y2="136.85" gradientUnits="userSpaceOnUse"><stop offset="0" stop-color="#6e8f3c"/><stop offset="1" stop-color="#69883a"/></linearGradient><linearGradient id="linear-gradient-3" x1="92.77" y1="91.52" x2="112.05" y2="134.36" xlink:href="#linear-gradient-2"/><radialGradient id="radial-gradient-2" cx="70.59" cy="84.46" r="41.7" gradientUnits="userSpaceOnUse"><stop offset="0" stop-color="#393776"/><stop offset="1" stop-color="#1f1c53"/></radialGradient><radialGradient id="radial-gradient-3" cx="70.59" cy="84.46" r="41.7" xlink:href="#radial-gradient-2"/><radialGradient id="radial-gradient-4" cx="64.82" cy="79.7" r="16.9" xlink:href="#linear-gradient-2"/><radialGradient id="radial-gradient-5" cx="64.82" cy="79.68" r="16.78" xlink:href="#linear-gradient-2"/><linearGradient id="linear-gradient-4" x1="83.68" y1="68.16" x2="83.68" y2="60.33" xlink:href="#Áåçûìÿííûé_ãðàäèåíò_8"/><linearGradient id="linear-gradient-5" x1="-3674.8" y1="43.09" x2="-3674.8" y2="35.26" gradientTransform="matrix(-1, -0.03, -0.03, 1, -3609.74, -77.96)" xlink:href="#Áåçûìÿííûé_ãðàäèåíò_8"/><linearGradient id="linear-gradient-6" x1="63.03" y1="60.52" x2="83.16" y2="60.52" xlink:href="#Áåçûìÿííûé_ãðàäèåíò_8"/><linearGradient id="linear-gradient-7" x1="63.31" y1="70.87" x2="83.11" y2="70.87" xlink:href="#Áåçûìÿííûé_ãðàäèåíò_8"/><linearGradient id="Áåçûìÿííûé_ãðàäèåíò_342" x1="53.57" y1="91.97" x2="46.56" y2="91.97" gradientTransform="translate(26.66 -29.72) rotate(-0.92)" gradientUnits="userSpaceOnUse"><stop offset="0.01" stop-color="#892332"/><stop offset="1" stop-color="#402731"/></linearGradient><clipPath id="clip-path"><path id="SVGID" class="cls-1" d="M75.94,64.71a3.18,3.18,0,0,1,.77-1,5.78,5.78,0,0,1,2.54-.08,3.85,3.85,0,0,1,1.06.58l-.44.69a.46.46,0,0,1-.18.16,4.24,4.24,0,0,1-1.31.35,3.84,3.84,0,0,1-2.26-.48A1.17,1.17,0,0,1,75.94,64.71Z"/></clipPath><linearGradient id="linear-gradient-8" x1="78.08" y1="65.07" x2="78.08" y2="63.42" gradientUnits="userSpaceOnUse"><stop offset="0.01" stop-color="#708c8c"/><stop offset="0.08" stop-color="#6e8487"/><stop offset="0.46" stop-color="#656170"/><stop offset="0.78" stop-color="#5f4c61"/><stop offset="0.98" stop-color="#5d445c"/></linearGradient><linearGradient id="Áåçûìÿííûé_ãðàäèåíò_342-2" x1="123.9" y1="-10.59" x2="130.77" y2="-10.59" gradientTransform="translate(-59.23 67.78) rotate(1.91)" xlink:href="#Áåçûìÿííûé_ãðàäèåíò_342"/><clipPath id="clip-path-2"><path id="SVGID-2" data-name="SVGID" class="cls-1" d="M70.88,64.71a3.18,3.18,0,0,0-.77-1,5.78,5.78,0,0,0-2.54-.08,4,4,0,0,0-1.06.58l.44.69a.46.46,0,0,0,.18.16,4.24,4.24,0,0,0,1.31.35,3.84,3.84,0,0,0,2.26-.48A1.17,1.17,0,0,0,70.88,64.71Z"/></clipPath><linearGradient id="linear-gradient-9" x1="68.75" y1="65.24" x2="68.75" y2="63.31" gradientUnits="userSpaceOnUse"><stop offset="0.01" stop-color="#708c8c"/><stop offset="0.09" stop-color="#6c7e83"/><stop offset="0.3" stop-color="#666572"/><stop offset="0.51" stop-color="#615266"/><stop offset="0.74" stop-color="#5e485e"/><stop offset="0.98" stop-color="#5d445c"/></linearGradient><linearGradient id="Áåçûìÿííûé_ãðàäèåíò_77" x1="72.49" y1="69.84" x2="72.49" y2="71.57" gradientUnits="userSpaceOnUse"><stop offset="0.03" stop-color="#f26b69"/><stop offset="1" stop-color="#f47b60"/></linearGradient><linearGradient id="Áåçûìÿííûé_ãðàäèåíò_77-2" x1="74.78" y1="69.84" x2="74.78" y2="71.57" xlink:href="#Áåçûìÿííûé_ãðàäèåíò_77"/><linearGradient id="linear-gradient-10" x1="68.65" y1="53.24" x2="80.34" y2="76.9" xlink:href="#linear-gradient"/><linearGradient id="Áåçûìÿííûé_ãðàäèåíò_341" x1="73.44" y1="76.16" x2="73.44" y2="76.51" gradientUnits="userSpaceOnUse"><stop offset="0" stop-color="#ec887e"/><stop offset="1" stop-color="#ee686a"/></linearGradient><linearGradient id="Áåçûìÿííûé_ãðàäèåíò_407" x1="71.66" y1="74.94" x2="75.3" y2="74.94" gradientUnits="userSpaceOnUse"><stop offset="0" stop-color="#d06075"/><stop offset="1" stop-color="#e14b80"/></linearGradient><linearGradient id="linear-gradient-11" x1="70.08" y1="73.24" x2="70.67" y2="73.24" xlink:href="#Áåçûìÿííûé_ãðàäèåíò_8"/><linearGradient id="linear-gradient-12" x1="76.19" y1="73.24" x2="76.82" y2="73.24" xlink:href="#Áåçûìÿííûé_ãðàäèåíò_8"/><linearGradient id="Áåçûìÿííûé_ãðàäèåíò_341-2" x1="605.04" y1="-1073.81" x2="605.88" y2="-1073.81" gradientTransform="translate(-971.4 721.85) rotate(28.84)" xlink:href="#Áåçûìÿííûé_ãðàäèåíò_341"/><linearGradient id="linear-gradient-13" x1="95.32" y1="102.47" x2="107.88" y2="102.47" xlink:href="#linear-gradient"/><linearGradient id="linear-gradient-14" x1="99.11" y1="93.36" x2="105.76" y2="93.36" xlink:href="#linear-gradient"/><linearGradient id="linear-gradient-15" x1="96.08" y1="99.66" x2="97.02" y2="99.66" xlink:href="#linear-gradient"/></defs><g class="cls-2"><g id="Layer_1" data-name="Layer 1"><polygon class="cls-3" points="67.23 76.61 67.23 84.9 78.89 84.9 78.89 75.44 67.23 75.44 67.23 76.61"/><path class="cls-4" d="M67.23,75.44,72.68,81a1.5,1.5,0,0,0,1.06.44h.7a1.45,1.45,0,0,0,1-.4l3.44-3.21V74.4Z"/><path class="cls-5" d="M29.58,26.29c-.58,1.53-1.31,2.63-1.28,3.76A23.46,23.46,0,0,0,29.22,34l-6,2.22s-1.35-2.85-1.57-3.69-.18-1.05-.29-1.42-4.46-6.87-4.17-8.36,2.82-3.14,4.68-4.53a13,13,0,0,1,1.3-.88l.15-.09a5,5,0,0,1,2.16-.82c.52,0,2.2,2.3,2.2,2.3A3.69,3.69,0,0,1,29,18.18c.48,0,1.13.33,1.53,3.72A23.45,23.45,0,0,1,29.58,26.29Z"/><path class="cls-6" d="M99.83,99v33.41H95.32s-.38-.82-.9-2a57.44,57.44,0,0,1-2.84-7.62c-.22-.89-.5-2.06-.8-3.3v0c0-.1,0-.21-.07-.32v0c-.78-3.33-1.63-7-1.63-7l0,6.24L89,132.45H55.51s-.92-13-1-18c0-.27,0-.51,0-.72a27.44,27.44,0,0,0-.53-4.54v0a86.43,86.43,0,0,0-3.19-12.08c-1-2.52-4.15-8.23-5.79-11.39s-6.92-11.1-9-15a188.45,188.45,0,0,1-12.57-29.8l5.76-1.78,2.28-.7s10.73,20,11.76,22.72a20.12,20.12,0,0,0,3.2,5.2l.77.23.88.26.22,1.29,9.15,12.46.87.32.78.29v1.59L61,82.55l.43.71,3.79.15,7.94,2.26,7.49-2.1.73-.2s9.37,1.53,11,1.92A31.93,31.93,0,0,1,96.82,87l.51,2Z"/><path class="cls-7" d="M55.26,114.76c.09,4.51.85,15.64,1,17.69h-.75s-.92-13-1-18c0-.27,0-.51,0-.72a27.44,27.44,0,0,0-.53-4.54v0a86.43,86.43,0,0,0-3.19-12.08c-1-2.52-4.15-8.23-5.79-11.39s-6.92-11.1-9-15a188.45,188.45,0,0,1-12.57-29.8l5.76-1.78,2.28-.7.26.49-1.77.54-5.76,1.78A188.71,188.71,0,0,0,36.7,71c2.12,3.88,7.39,11.81,9,15s4.8,8.87,5.79,11.39a87.87,87.87,0,0,1,3.19,12.08v0a26.76,26.76,0,0,1,.54,4.55Z"/><path class="cls-8" d="M46.37,66.33a20.12,20.12,0,0,1-3.2-5.2c-1-2.71-11.76-22.72-11.76-22.72l-2.28.7-3.6,2.16A21.76,21.76,0,0,0,31,40s13.09,27.1,15.07,28.18c-.38,2.42-.9,6.62-.41,8.82,0,0,.8-6.87,2.37-10.16Z"/><path class="cls-8" d="M94.62,123.65c-4.07-4-5-20.23-4.56-24l-2.73,10.83s-22.3,3.9-29.25.77c5.37,2.92,24.91,3.35,28.93,3.11,1.65-.16-1.84,15.59-2.08,18.08h4l.09-20.32s1.69,7.34,2.52,10.68a57.44,57.44,0,0,0,2.84,7.62l2.91-.52Z"/><path class="cls-8" d="M97.28,88.82c-.68.09-4.77,1.12-6.34,7.69a14,14,0,0,1,4.94-9c-1.31-.89-10.38-2.63-12.79-2.63a5.53,5.53,0,0,0-4,2.14l-.2-1.37,1.71-2.1.73-.2s9.37,1.53,11,1.92A31.93,31.93,0,0,1,96.82,87Z"/><path class="cls-9" d="M20.78,35.63a12.18,12.18,0,0,0,5.62-1.16,15.1,15.1,0,0,0,3.33-2.12l2.92,5.73s-2.92,2.67-9.5,3.65Z"/><path class="cls-10" d="M20.78,35.63a12.18,12.18,0,0,0,5.62-1.16,15.1,15.1,0,0,0,3.33-2.12l2.92,5.73s-2.92,2.67-9.5,3.65Z"/><path class="cls-8" d="M31.45,38a14,14,0,0,0-2.3-4.42,21.62,21.62,0,0,1-4.81,1.65,9.4,9.4,0,0,0,2.06-.77,15.1,15.1,0,0,0,3.33-2.12l2.92,5.73a15.27,15.27,0,0,1-5.37,2.71h0C30.93,38.67,31.45,38,31.45,38Z"/><path class="cls-11" d="M107.87,100.6c-.05,1.2-2.46,5-2.46,5.34s-.08,3.5-.08,3.5H98.57v-3a10.07,10.07,0,0,1-1.1-2.52c0-.69-.29-2.44-.29-2.44L97,100.37h0c-.14.13-.34.29-.47.25A8,8,0,0,1,95.47,99a8.14,8.14,0,0,1,0-2.88s3.58-1.61,4.27-1.9a2.65,2.65,0,0,1-.63-.33h0c-.2-.16-.33-.36-.17-.58.36-.52,4-1.87,4.41-2s1.64,1.25,2.59,2.37h0c.33.39.62.76.81,1a8.28,8.28,0,0,0,.69.8S107.93,99.39,107.87,100.6Z"/><path class="cls-12" d="M102.64,132.07c-.53,2.05-2.07,2.21-3.49,1.89a18,18,0,0,1-2.7-1c-.82-.28-2.54-3-2.46-4.66.27-6.36,3.72-14.57,3.72-14.57l7.19.65.65.06C106.26,118.54,103.63,128.29,102.64,132.07Z"/><path class="cls-7" d="M98.26,113.94s-3.45,8.21-3.73,14.57c-.07,1.7,1.65,4.38,2.47,4.65.19.07.58.26,1.07.47-.75-.28-1.36-.6-1.62-.68-.82-.28-2.54-3-2.46-4.66.27-6.36,3.72-14.57,3.72-14.57Z"/><path class="cls-8" d="M102.64,132.07c-.53,2.05-2.07,2.21-3.49,1.89a3.63,3.63,0,0,1,.68-1.51c2.49-3.35,5.07-16.47,4.77-16.58a14.29,14.29,0,0,0-2.73-.6l3-.9.65.06C106.26,118.54,103.63,128.29,102.64,132.07Z"/><path class="cls-13" d="M106.42,108.13l-.25,6.9a18.32,18.32,0,0,1-8.84-.63h0l-.5-.16,1-6.1a13.26,13.26,0,0,0,3.66.92A10.22,10.22,0,0,0,106.42,108.13Z"/><path class="cls-10" d="M106.42,108.13l-.25,6.9a18.32,18.32,0,0,1-8.84-.63h0l-.5-.16,1-6.1.55.2a12.15,12.15,0,0,0,3.11.72A10.22,10.22,0,0,0,106.42,108.13Z"/><path class="cls-8" d="M66.29,85.63s2.34,3,3.25,3.42A9.12,9.12,0,0,1,72,86.15l-2.91-2.06Z"/><path class="cls-8" d="M74.8,87.78h0A10.19,10.19,0,0,0,76,85.38a7.09,7.09,0,0,0-1.79-1.24l-.59,0-2.17,1.58a12.06,12.06,0,0,0,1.55,2,46.36,46.36,0,0,0-1.79,11.67v25.49h5.34V99.44A46.22,46.22,0,0,0,74.8,87.78Z"/><path class="cls-14" d="M70.94,85.41a12.06,12.06,0,0,0,1.55,2,4.43,4.43,0,0,0,1.78,0,10.59,10.59,0,0,0,1.22-2.39,7.09,7.09,0,0,0-1.79-1.24l-.59,0Z"/><path class="cls-15" d="M74.25,87.44H72.49A46.36,46.36,0,0,0,70.7,99.11V124.6H76V99.11A46.36,46.36,0,0,0,74.25,87.44Z"/><path class="cls-16" d="M73.7,83.81a16.7,16.7,0,0,0,4-2.85,18.41,18.41,0,0,0,1.65-1.89l2,4.54s-2.16,3.87-4,5Z"/><path class="cls-17" d="M67,79.53s3.92,3.56,6.13,4.3c0,0-3.25,3.48-3.72,4.82,0,0-3.31-2.6-4.36-5Z"/><path class="cls-18" d="M83,61.57l-1.19,6.1s.29.49.6.49c.83,0,3-2.6,3.08-5.57S84.11,59.9,83,61.57Z"/><path class="cls-19" d="M63.22,61.44l1,6.13s-.31.48-.62.47c-.82,0-2.88-2.69-2.92-5.66S62.19,59.73,63.22,61.44Z"/><path class="cls-20" d="M83.16,60.52A11.3,11.3,0,0,1,83,62.28a10.78,10.78,0,0,1-2,4.77A9.86,9.86,0,0,1,64.3,65.63a10.89,10.89,0,0,1-.84-2A11,11,0,0,1,63,60.52a10.42,10.42,0,0,1,7.54-10.15,9.79,9.79,0,0,1,5,0A10.43,10.43,0,0,1,83.16,60.52Z"/><path class="cls-21" d="M83.11,62.3c0,.1,0,.26,0,.45-.21,2.26-1.36,10-1.64,10.7a45.71,45.71,0,0,1-4.31,4.27h0l-.48.44-.41.38h0c-.2.18-.38.34-.51.47a1.3,1.3,0,0,1-.65.3,13,13,0,0,1-3.4,0A1.21,1.21,0,0,1,71,79c-1-.92-4.59-4.29-5.8-5.69a1.9,1.9,0,0,1-.44-.94c-.15-.87-.49-2.84-.8-4.7l0-.18h0c-.24-1.4-.46-2.71-.58-3.4l-.08-.5h.15l7.91-.52h.1l3.64-.24h.07L83,62.3h.09Z"/><path class="cls-22" d="M75,61.06l0,1.14s4.18-.64,4.64-.65a3.3,3.3,0,0,1,2.23.38,10.27,10.27,0,0,0-2.16-1.23A33.18,33.18,0,0,1,75,61.06Z"/><path id="SVGID-3" data-name="SVGID" class="cls-1" d="M75.94,64.71a3.18,3.18,0,0,1,.77-1,5.78,5.78,0,0,1,2.54-.08,3.85,3.85,0,0,1,1.06.58l-.44.69a.46.46,0,0,1-.18.16,4.24,4.24,0,0,1-1.31.35,3.84,3.84,0,0,1-2.26-.48A1.17,1.17,0,0,1,75.94,64.71Z"/><g class="cls-23"><circle class="cls-24" cx="78.08" cy="64.22" r="0.99"/><circle class="cls-25" cx="78.08" cy="64.16" r="0.62"/></g><path class="cls-26" d="M75.94,64.72a2.26,2.26,0,0,1,.63-1,4.09,4.09,0,0,1,2.22-.35,1.59,1.59,0,0,1,.7.11c.15.06,1.26.59,1.26.59l-.44.42s-.79-.58-1-.68a4.61,4.61,0,0,0-2.45-.08C76.6,63.79,75.94,64.72,75.94,64.72Z"/><path class="cls-27" d="M71.83,61.12l0,1.14s-4.17-.71-4.63-.73a3.29,3.29,0,0,0-2.24.35,10.33,10.33,0,0,1,2.19-1.2A32.65,32.65,0,0,0,71.83,61.12Z"/><path id="SVGID-4" data-name="SVGID" class="cls-1" d="M70.88,64.71a3.18,3.18,0,0,0-.77-1,5.78,5.78,0,0,0-2.54-.08,4,4,0,0,0-1.06.58l.44.69a.46.46,0,0,0,.18.16,4.24,4.24,0,0,0,1.31.35,3.84,3.84,0,0,0,2.26-.48A1.17,1.17,0,0,0,70.88,64.71Z"/><g class="cls-28"><circle class="cls-29" cx="68.75" cy="64.22" r="0.99"/><path class="cls-25" d="M68.13,64.16a.62.62,0,0,0,.62.62.62.62,0,0,0,0-1.23A.61.61,0,0,0,68.13,64.16Z"/></g><path class="cls-26" d="M70.88,64.72a2.26,2.26,0,0,0-.63-1A4.07,4.07,0,0,0,68,63.35a1.62,1.62,0,0,0-.7.11c-.15.06-1.26.59-1.26.59l.44.42s.8-.58,1-.68a4.61,4.61,0,0,1,2.45-.08C70.22,63.79,70.88,64.72,70.88,64.72Z"/><path class="cls-30" d="M71.36,70.21s-.15.29.33.66a1.77,1.77,0,0,1,.93.38,3.1,3.1,0,0,0,1,.3V70.39A16.27,16.27,0,0,1,71.36,70.21Z"/><path class="cls-31" d="M75.9,70.17s.15.29-.32.66a1.78,1.78,0,0,0-.92.4,3,3,0,0,1-1,.32V70.39A16.43,16.43,0,0,0,75.9,70.17Z"/><path class="cls-32" d="M71.36,70.21a2.57,2.57,0,0,1,4.54,0A10.65,10.65,0,0,1,71.36,70.21Z"/><path class="cls-33" d="M81.17,55.54A15,15,0,0,0,82.73,61l.8,4.43A13.48,13.48,0,0,0,84,62.65a2.27,2.27,0,0,1,.36-1.4l.75-.13-.29-1.67.29-.91-.23-.92.23-1.15-.29-1.24s.91-2.78-1-4.45c0,0-.66-2.69-1.11-2.91a8,8,0,0,1-4-1.82c-2.4-1.77-7.07-2.41-10-.3,0,0-1.52-.73-3.43,1,0,0-2,0-3.54,3.14,0,0-1.62,3.15,0,5,0,0-.34,2.86,0,3.16l.59,2.6.74,2.43.24,2.3a14.76,14.76,0,0,0,.79-4.48s2-3.27,1.59-4.78c0,0,6.08.89,7.28.81C78.52,57.21,79.63,57.62,81.17,55.54Z"/><path class="cls-34" d="M83.08,62.3l-.06.46h.06c-.21,2.26-1.36,10-1.64,10.7a45.71,45.71,0,0,1-4.31,4.27h0l-.48.44-.41.38h0c2.16-2.55,4.08-5.36,4.08-5.36A23.6,23.6,0,0,0,81,67.7,15.65,15.65,0,0,0,80.75,65l-1.49.46a11.22,11.22,0,0,1-2.13,0A3.94,3.94,0,0,1,75.64,65a5.73,5.73,0,0,1-.46-1.65c0-.16-.05-.32-.07-.47C75,61.87,75,61,75,61l5.34-.08s.7-3,0-3.42-3.89.54-6.68.48a67.32,67.32,0,0,1-6.8-.73,7.48,7.48,0,0,0-.19,3.21s.06.15.13.4l5.11.2-.41,2-.1.49-.23,1.12-.67.57a4.8,4.8,0,0,1-2.39.28L66.51,65l-.58-.64a2.89,2.89,0,0,0-1.63,1.93,7.34,7.34,0,0,0-.3,1.45,4.57,4.57,0,0,0,0,.47c-.35-2.12-.66-4-.66-4h.15c0-.16-.09-.33-.13-.5a11.77,11.77,0,0,1-.3-2.68,10.75,10.75,0,0,1,7.54-10.52h5a10.76,10.76,0,0,1,7.55,10.52A12.3,12.3,0,0,1,83.08,62.3Z"/><path class="cls-35" d="M72.38,76.09a4.58,4.58,0,0,0,2.12,0,1.89,1.89,0,0,1-1,.37A2.29,2.29,0,0,1,72.38,76.09Z"/><path class="cls-36" d="M76.82,73.22a5.41,5.41,0,0,1-1.52,1.65,3.15,3.15,0,0,1-3.64,0,5.51,5.51,0,0,1-1.58-1.69h.45l0,0c.78.07,2.37.2,3.11.2s2-.12,2.68-.19v0h.47Z"/><path class="cls-37" d="M76.34,73.27l0,.12s-.75.79-2.9.79-2.76-.72-2.76-.72l-.08-.2c.78.07,2.37.2,3.11.2S75.61,73.34,76.34,73.27Z"/><path class="cls-38" d="M75.3,74.87a3.15,3.15,0,0,1-3.64,0,2.3,2.3,0,0,1,1.67-.51A2.91,2.91,0,0,1,75.3,74.87Z"/><path class="cls-39" d="M70.67,73.22h-.14l0,0-.47,0Z"/><path class="cls-40" d="M76.34,73.27v0h.47Z"/><path class="cls-41" d="M76.57,72.9a5,5,0,0,1,.61.63.76.76,0,0,0-.12-.35A1.62,1.62,0,0,0,76.57,72.9Z"/><path class="cls-33" d="M65.78,56.15s6.08.89,7.28.81c2.84-.07,6.57.66,8.11-1.42"/><path class="cls-8" d="M59,81.18C54.87,85,53.78,96.13,53.78,96.13c-.55-10,3.61-15.56,3.61-15.56Z"/><path class="cls-8" d="M59,89.45a11.41,11.41,0,0,1,0-6.68L61,82.55C59,85.14,59,89.45,59,89.45Z"/><path class="cls-8" d="M106.42,108.13l-.25,6.9a18.32,18.32,0,0,1-8.84-.63,15.85,15.85,0,0,0,8.08-.22s.22-4.74-.41-4.74a12.24,12.24,0,0,1-3.5-.39A10.22,10.22,0,0,0,106.42,108.13Z"/><path class="cls-7" d="M98.39,108.33l-1.07,6.06-.5-.16,1-6.1Z"/><path class="cls-42" d="M107.87,100.6c-.05,1.2-2.46,5-2.46,5.34s-.08,3.5-.08,3.5H98.57v-1.31a5.48,5.48,0,0,0,.7-2c.06-.87-2.18-5.64-2.25-5.79h0a2,2,0,0,1-.23.18.29.29,0,0,1-.24.07A8,8,0,0,1,95.47,99a8.14,8.14,0,0,1,0-2.88s1.7,3.48,2.13,3.5,1.21-1.34,5.15-2.74,4.69-1.35,4.69-1.35S107.93,99.39,107.87,100.6Z"/><path class="cls-43" d="M105.76,94.18c-.11-.05-1.93-1.35-2.48-1.28s-2.91,1.19-3.54,1.28a2.65,2.65,0,0,1-.63-.33,3.32,3.32,0,0,0,1.91-.49,6,6,0,0,1,2.33-.82A17.48,17.48,0,0,1,105.76,94.18Z"/><path class="cls-44" d="M97,100.37h0a2,2,0,0,1-.23.18,9.67,9.67,0,0,0-.71-1.77A11.73,11.73,0,0,1,97,100.37Z"/><path class="cls-8" d="M57.39,80.57a12.76,12.76,0,0,0-1,1.72h0L48,69.21a3,3,0,0,1,.22-1.1Z"/><path class="cls-8" d="M90.69,119.13c-.78-3.33-1.63-7-1.63-7L89,122c-.59-4.31-.94-12.6.65-18.84C89.66,103.2,89.3,113,90.69,119.13Z"/></g></g></svg>