<svg xmlns="http://www.w3.org/2000/svg" xmlns:xlink="http://www.w3.org/1999/xlink" viewBox="0 0 82.95 110.48"><defs><style>.cls-1{isolation:isolate;}.cls-2{fill:url(#radial-gradient);}.cls-3{fill:#8b699a;opacity:0.3;mix-blend-mode:multiply;}.cls-4{fill:url(#radial-gradient-2);}.cls-5{fill:url(#radial-gradient-3);}.cls-6{fill:#dd826b;}.cls-7{fill:#161a3d;}.cls-8{fill:url(#radial-gradient-4);}.cls-9{fill:url(#Áåçûìÿííûé_ãðàäèåíò_8);}.cls-10{fill:url(#radial-gradient-5);}.cls-11{fill:#969696;}.cls-12{fill:url(#Áåçûìÿííûé_ãðàäèåíò_8-2);}.cls-13{fill:url(#radial-gradient-6);}</style><radialGradient id="radial-gradient" cx="24.38" cy="6.82" r="111.44" gradientTransform="translate(-25.74) scale(1.03 1)" gradientUnits="userSpaceOnUse"><stop offset="0" stop-color="#bae2f8"/><stop offset="1" stop-color="#b3b3b3"/></radialGradient><radialGradient id="radial-gradient-2" cx="63.71" cy="44.7" r="44.56" gradientTransform="translate(-25.74) scale(1.03 1)" gradientUnits="userSpaceOnUse"><stop offset="0" stop-color="#393776"/><stop offset="1" stop-color="#1f1c53"/></radialGradient><radialGradient id="radial-gradient-3" cx="63.71" cy="44.7" r="44.56" xlink:href="#radial-gradient-2"/><radialGradient id="radial-gradient-4" cx="46.08" cy="41.38" r="46.88" xlink:href="#radial-gradient"/><linearGradient id="Áåçûìÿííûé_ãðàäèåíò_8" x1="30.43" y1="39.87" x2="52.31" y2="39.87" gradientUnits="userSpaceOnUse"><stop offset="0.02" stop-color="#faad79"/><stop offset="1" stop-color="#f6947d"/></linearGradient><radialGradient id="radial-gradient-5" cx="49.08" cy="58.4" r="30.67" xlink:href="#radial-gradient"/><linearGradient id="Áåçûìÿííûé_ãðàäèåíò_8-2" x1="41.31" y1="35.3" x2="61.71" y2="35.3" xlink:href="#Áåçûìÿííûé_ãðàäèåíò_8"/><radialGradient id="radial-gradient-6" cx="85.74" cy="88.5" r="35.58" gradientTransform="translate(-25.74) scale(1.03 1)" gradientUnits="userSpaceOnUse"><stop offset="0" stop-color="#b3b3b3"/><stop offset="1" stop-color="#bae2f8"/></radialGradient></defs><g class="cls-1"><g id="Layer_1" data-name="Layer 1"><path class="cls-2" d="M65.67,85.63l-.51.55,1.61,7.55L67.25,96H26.46l.26-17.68.53-35.42,31.37.52,1.62,0c.88.25,4.9,1.83,6.68,2.55.93.38.67,13.09.85,25,0,2.48.1,4.45.13,6.08a21.14,21.14,0,0,1-.34,5.36A7.22,7.22,0,0,1,65.67,85.63Z"/><path class="cls-3" d="M67.56,82.38l-1.48-.16.24-9.6L62.61,56a11.14,11.14,0,0,1,0-4.93,9.91,9.91,0,0,1,2.83-4.43c-1.35-.48-5.1-1.64-5.1-1.64L58.62,43.4l1.62,0c.88.25,4.9,1.83,6.68,2.55.93.38.67,13.09.85,25C67.86,77.06,68.14,80.15,67.56,82.38Z"/><path class="cls-3" d="M67.9,77a21.14,21.14,0,0,1-.34,5.36,7.22,7.22,0,0,1-1.89,3.25l-.51.55,1.61,7.55L67.25,96H26.46l.26-17.68c.9-3.39,1.63-7,1.76-7.29,14.4,2.3,31.14-.83,31.14-.83l1.83-9.24C61.19,63.32,64.48,70.61,67.9,77Z"/><path class="cls-3" d="M44.62,48.24h0A11,11,0,0,0,46,45.67a8.05,8.05,0,0,0-2-1.32l-.64,0L41,46.06a12.74,12.74,0,0,0,1.72,2.17,48,48,0,0,0-2,12.47V87.94h5.88V60.7A48,48,0,0,0,44.62,48.24Z"/><path class="cls-4" d="M40.37,45.71a13.14,13.14,0,0,0,1.71,2.17,4.91,4.91,0,0,0,2,0,10.66,10.66,0,0,0,1.35-2.56,8.06,8.06,0,0,0-2-1.32l-.64,0Z"/><path class="cls-5" d="M44,47.88H42.08a48.18,48.18,0,0,0-2,12.47V87.59H46V60.35A48.18,48.18,0,0,0,44,47.88Z"/><path class="cls-6" d="M51.63,44.49,47.1,49.1a1.39,1.39,0,0,1-1,.41H43.81a1.35,1.35,0,0,1-1-.38l-5.32-5.07-4-10.27S27.19,12.94,45.2,12.48,57.07,34.64,57.07,34.64Z"/><path class="cls-7" d="M40.42,11.16c3.44-3.15,7.94,0,7.94,0s3.69-.69,3.69,1.32c0,0,6.75,1.95,7.15,9s1.07,8.85-1.12,11.09-7.23,5.74-17.15,4.15-9.37-6-9.37-6S29.34,28,30.45,26c-1.27-2,.35-7.72,2-7.72A10.1,10.1,0,0,1,40.42,11.16Z"/><path class="cls-8" d="M35.58,44.69,14.73,84.28A25.69,25.69,0,0,1,14,79.05c.53-3.79,2.93-16.46,3.72-20.15.41-1.89.88-4.19,1.36-6.42v0l0-.19c.85-3.94,1.72-7.61,2.28-8.27a1,1,0,0,1,.27-.15h0a83.86,83.86,0,0,1,12.43-2.29Z"/><path class="cls-3" d="M26.64,57c0-.76-.12-5.48-5.23-11.48-.45-.5-2.19,6.41-2.32,6.93l0-.19c.85-3.94,1.72-7.61,2.28-8.27a1,1,0,0,1,.27-.15h0S26.89,50.19,26.64,57Z"/><path class="cls-9" d="M31.17,48.58s2.22-4.33,2.22-5.07-.49-7.15-.49-8.36A42.29,42.29,0,0,1,33.78,30c.12-.63-.6-3.16.21-3.39S36,29,36,31s-.12,3.07.44,3.71c.36.4,2.46-1.74,3.21-3a57.69,57.69,0,0,1,4-5.8c.36-.26,1.83.29,1,2-.52,1-3.89,6.47-3.26,6.9s4.48-4.77,5.45-6.15c.44-.63,1.42-1.2,1.88-.87s.52,1.29-2.38,4.9-2.61,4.66-2.25,4.88,2.83-2.2,4.11-3.42,2.55-2.37,3.05-1.83-.32,1.59-2.45,3.79-3.21,3.5-2.76,4.13,4.8-2.65,5.59-2.8,1,.76.2,1.54-4.76,4.47-7,6.27S41.13,47.59,40,49.09A48.6,48.6,0,0,0,37,54l-6.61-3.89Z"/><path class="cls-10" d="M35.58,58.52S28.9,79.66,27,83.4a9.53,9.53,0,0,1-8.31,5.44c-1.12,0-4-4.1-4.13-5.14a6.49,6.49,0,0,1,.19-2.11c1-4.73,5.54-13.55,6.6-15.82C22.6,63,27.79,53.19,27.79,53.19L31,55.37Z"/><path class="cls-3" d="M35.58,58.52S28.9,79.66,27,83.4a9.53,9.53,0,0,1-8.31,5.44c-1.12,0-4-4.1-4.13-5.14a6.49,6.49,0,0,1,.19-2.11,2.22,2.22,0,0,1,.22.7c.77,4.4,4,5.3,7.77,2S33.34,60.94,33.65,60.11,30.91,57,30.91,57L31,55.37Z"/><path class="cls-11" d="M38.82,52.91l-2.38,6.3s-2.51-.13-6.1-2.56a14.31,14.31,0,0,1-1.86-1.49h0a6,6,0,0,1-1.5-2l2.91-6a16.84,16.84,0,0,0,3.61,3.34A15.65,15.65,0,0,0,38.82,52.91Z"/><path class="cls-12" d="M60.68,48.84s-.44-3.53-.44-5.41,1.37-8,1.46-8.89a53.26,53.26,0,0,0-.73-7c-.23-1-2.4-3.19-3.14-3.27s-.76,1.31,0,2.62a2.24,2.24,0,0,1,.53,1.51c0,.85-.1,3.14-.1,3.14s-1.9-4.2-2.69-5.93-2.28-6.33-3.63-5.93S53,25,53.43,26.3s.58,3,0,3.07S50.52,23.79,50,22.79s-2.44-4.52-3.29-3.44,1.47,4,2,5.61,2.14,5.33,1.55,5.72-2.66-3.16-3.2-4.33-2.35-4.52-3.29-4,1.32,4.54,2,5.83,2.53,4.37,1.87,4.78-2.44-2.2-3.28-3.2-2.05-3.06-3-2.55,4.07,7.39,4.6,8.44A31.29,31.29,0,0,0,51.51,44l1.68,7.5,7.54-1.32Z"/><path class="cls-13" d="M67.74,83.21C67,84.66,63.77,88,61.52,88a6.1,6.1,0,0,1-2.12-.39,6,6,0,0,1-3-2.69c-1.19-2-2-18.28-2.56-28.88l4.07-1,4.58-1.09s4.32,17.56,5.29,22.6C68.33,79.64,68.44,81.75,67.74,83.21Z"/><path class="cls-3" d="M67.74,83.21C67,84.66,63.77,88,61.52,88a6.1,6.1,0,0,1-2.12-.39c3-1,5.54-2.72,5.75-6.61.24-4.45-3.44-25.14-3.44-25.14H58.22L57.87,55l4.58-1.09s4.32,17.56,5.29,22.6C68.33,79.64,68.44,81.75,67.74,83.21Z"/><path class="cls-11" d="M63.21,53.93a22.75,22.75,0,0,1-5,1.88,19.77,19.77,0,0,1-2.49.2h0c-1.41,0-2.63,0-2.63,0l-1.05-5.74a17.23,17.23,0,0,0,3.68-.1A19.37,19.37,0,0,0,62,48.26Z"/><path class="cls-3" d="M63.21,53.93a22.75,22.75,0,0,1-5,1.88,19.77,19.77,0,0,1-2.49.2C60,55.61,61,53.94,61,53.94a19.58,19.58,0,0,0-.29-3.8c-.29-.59-3.33,0-5,0A19.37,19.37,0,0,0,62,48.26Z"/><path class="cls-3" d="M38.82,52.91l-2.38,6.3s-2.51-.13-6.1-2.56a14.31,14.31,0,0,1-1.86-1.49c4.91,3,6.43,2.48,6.43,2.48l1.4-4.1c-.83-1-2.81-3-2.81-3h0A15.65,15.65,0,0,0,38.82,52.91Z"/><path class="cls-3" d="M26.64,57.08v0Z"/></g></g></svg>